<svg version="1.1" id="Layer_1" xmlns="http://www.w3.org/2000/svg" xmlns:xlink="http://www.w3.org/1999/xlink" x="0px" y="0px"
	 width="100%" viewBox="0 0 2000 2000" enable-background="new 0 0 2000 2000" xml:space="preserve">
<path fill="#FFFFFF" opacity="1.000000" stroke="none" 
	d="
M1111.000000,2001.000000 
	C740.666687,2001.000000 370.833344,2001.000000 1.000000,2001.000000 
	C1.000000,1334.333374 1.000000,667.666687 1.000000,1.000000 
	C667.666687,1.000000 1334.333374,1.000000 2001.000000,1.000000 
	C2001.000000,667.666687 2001.000000,1334.333374 2001.000000,2001.000000 
	C1704.500000,2001.000000 1408.000000,2001.000000 1111.000000,2001.000000 
M962.410217,655.081787 
	C965.423218,641.956238 956.196899,631.007935 942.007324,631.004700 
	C873.511353,630.988831 805.015320,631.004028 736.519348,631.012512 
	C723.698425,631.014099 716.482971,636.658875 714.139587,649.110291 
	C709.637756,673.029968 705.427673,697.004456 700.988708,720.936157 
	C697.783875,738.213867 694.275879,755.435852 691.132874,772.724487 
	C686.222778,799.733643 681.650391,826.804688 676.667786,853.800171 
	C671.972290,879.239563 666.820251,904.594543 662.085266,930.026978 
	C659.327087,944.841614 657.074585,959.749634 654.448975,974.589905 
	C650.990906,994.134949 647.425293,1013.661316 643.841858,1033.183838 
	C638.743652,1060.958740 633.565369,1088.718872 628.462646,1116.492920 
	C624.861816,1136.092407 621.348999,1155.708130 617.762329,1175.310181 
	C612.759277,1202.653320 607.716736,1229.989136 602.704346,1257.330566 
	C596.704529,1290.057983 590.723572,1322.788940 584.725342,1355.516724 
	C578.059204,1391.888550 571.382996,1428.258423 564.711304,1464.629150 
	C558.723572,1497.271606 552.752930,1529.917114 546.742798,1562.555420 
	C541.581177,1590.586182 536.336304,1618.601807 531.205139,1646.638062 
	C528.951172,1658.953735 537.013062,1669.940674 548.918823,1670.942383 
	C551.237793,1671.137329 553.579956,1671.057983 556.029541,1671.991943 
	C556.152832,1674.974731 555.808533,1678.068359 556.485107,1680.919800 
	C558.704407,1690.274170 566.574890,1695.993286 576.811096,1695.992188 
	C645.301331,1695.984741 713.791687,1695.901611 782.281799,1695.976807 
	C795.099670,1695.990845 802.705872,1690.105591 804.946838,1677.616821 
	C808.028137,1660.444946 811.100159,1643.271362 814.240356,1626.110229 
	C826.560730,1558.779541 838.904480,1491.453125 851.243042,1424.125854 
	C862.233215,1364.156372 873.195068,1304.181885 884.229492,1244.220581 
	C895.745605,1181.641357 907.393127,1119.086426 918.873840,1056.500732 
	C931.374512,988.354858 943.700684,920.177002 956.194153,852.029785 
	C966.649292,795.000671 977.240540,737.996521 987.760071,680.979187 
	C989.955566,669.079224 983.434448,658.647583 972.137939,656.382812 
	C968.914062,655.736450 965.507385,656.002441 962.410217,655.081787 
M1565.863159,355.114838 
	C1566.876831,339.397705 1559.009766,330.999207 1543.262451,330.999176 
	C1141.768799,330.998322 740.275085,330.998383 338.781403,330.998291 
	C337.781433,330.998291 336.780853,330.975800 335.781555,331.001678 
	C326.626953,331.238739 319.121338,337.054169 316.881378,345.947449 
	C315.882446,349.913422 315.399292,354.008118 314.650726,358.038544 
	C311.115417,377.074249 307.411102,396.080200 304.065460,415.149139 
	C299.469818,441.343079 295.202515,467.594482 290.680054,493.801483 
	C287.638763,511.425323 284.348480,529.006104 281.266541,546.623047 
	C279.218445,558.330261 285.760193,568.367249 296.973328,570.604614 
	C299.874817,571.183594 302.939240,570.945862 306.065002,571.970886 
	C305.395264,578.907227 306.590210,585.218689 311.882202,590.297729 
	C316.515564,594.744629 322.040131,596.053528 328.328125,596.052612 
	C726.467407,595.994324 1124.606689,596.000854 1522.745972,596.000549 
	C1526.574341,596.000549 1530.405273,595.894104 1534.230591,595.999268 
	C1545.505859,596.309387 1553.799683,589.734863 1555.824585,578.632812 
	C1557.911743,567.189453 1559.885742,555.725342 1561.901978,544.269043 
	C1571.519897,489.619751 1581.128418,434.968781 1590.757935,380.321503 
	C1592.376343,371.137329 1588.734985,362.145630 1580.509399,358.493500 
	C1576.157349,356.561188 1570.853394,356.773224 1565.863159,355.114838 
M1613.224731,1166.880371 
	C1613.499512,1166.692627 1613.812134,1166.542847 1614.043701,1166.311646 
	C1639.508667,1140.887695 1665.108887,1115.595703 1690.248657,1089.854126 
	C1693.403320,1086.624023 1695.717041,1081.029175 1695.740356,1076.516113 
	C1696.087036,1009.538086 1696.108154,942.557007 1695.713379,875.579529 
	C1695.685303,870.820068 1692.905273,864.979248 1689.477173,861.593262 
	C1684.267822,856.448181 1677.368896,853.013733 1670.992920,848.130859 
	C1669.585449,841.391846 1665.865112,836.367004 1659.985352,832.780212 
	C1656.578735,830.702148 1653.372070,828.295654 1650.082520,826.026550 
	C1606.638550,796.059448 1563.253296,766.006653 1519.658203,736.261047 
	C1515.619873,733.505737 1510.254272,731.215393 1505.499878,731.205444 
	C1377.038940,730.936707 1248.577148,730.984497 1120.115601,731.015259 
	C1109.414795,731.017822 1101.697266,737.562805 1099.894043,748.018005 
	C1092.148804,792.926697 1084.462402,837.845459 1076.722168,882.754883 
	C1065.848633,945.844238 1054.914307,1008.923035 1044.066040,1072.016724 
	C1034.906128,1125.290283 1025.863281,1178.583862 1016.709045,1231.858398 
	C1009.837585,1271.848145 1002.840515,1311.816284 995.956543,1351.803955 
	C989.523376,1389.172729 983.195190,1426.559570 976.764893,1463.928833 
	C971.998840,1491.626221 967.093689,1519.299561 962.352173,1547.001099 
	C960.440552,1558.169312 966.799927,1568.090454 977.478821,1570.521362 
	C980.513184,1571.212158 983.769836,1570.926636 987.040588,1571.970581 
	C987.900146,1576.641357 987.842651,1581.747925 989.811890,1585.891235 
	C993.805298,1594.293457 1001.672607,1596.057983 1010.410034,1596.055176 
	C1223.695312,1595.988647 1436.980713,1596.003174 1650.265991,1596.003296 
	C1652.765381,1596.003296 1655.270874,1596.120117 1657.763184,1595.987549 
	C1664.541992,1595.627197 1670.376099,1593.479370 1674.369873,1587.483154 
	C1678.794556,1580.840088 1683.492676,1574.379761 1687.989868,1567.783936 
	C1704.008667,1544.289429 1719.795654,1520.633423 1736.086304,1497.329224 
	C1742.664673,1487.918701 1746.888184,1478.527466 1746.257324,1466.505005 
	C1745.324219,1448.724609 1746.016357,1430.859131 1746.015991,1413.029785 
	C1746.015137,1367.873291 1745.987793,1322.716675 1746.041382,1277.560181 
	C1746.049072,1271.056274 1744.449951,1265.097778 1739.273071,1261.088501 
	C1733.520386,1256.633423 1727.169556,1252.950928 1720.907471,1248.196899 
	C1719.736328,1242.005127 1716.586304,1237.211182 1711.273804,1233.684570 
	C1680.641357,1213.349854 1650.048462,1192.955688 1619.474731,1172.532959 
	C1617.027588,1170.898193 1614.826172,1168.895874 1613.224731,1166.880371 
z"/>
<path fill="#0B86FE" opacity="1.000000" stroke="none" 
	d="
M986.924500,1571.088867 
	C983.769836,1570.926636 980.513184,1571.212158 977.478821,1570.521362 
	C966.799927,1568.090454 960.440552,1558.169312 962.352173,1547.001099 
	C967.093689,1519.299561 971.998840,1491.626221 976.764893,1463.928833 
	C983.195190,1426.559570 989.523376,1389.172729 995.956543,1351.803955 
	C1002.840515,1311.816284 1009.837585,1271.848145 1016.709045,1231.858398 
	C1025.863281,1178.583862 1034.906128,1125.290283 1044.066040,1072.016724 
	C1054.914307,1008.923035 1065.848633,945.844238 1076.722168,882.754883 
	C1084.462402,837.845459 1092.148804,792.926697 1099.894043,748.018005 
	C1101.697266,737.562805 1109.414795,731.017822 1120.115601,731.015259 
	C1248.577148,730.984497 1377.038940,730.936707 1505.499878,731.205444 
	C1510.254272,731.215393 1515.619873,733.505737 1519.658203,736.261047 
	C1563.253296,766.006653 1606.638550,796.059448 1650.082520,826.026550 
	C1653.372070,828.295654 1656.578735,830.702148 1659.985352,832.780212 
	C1665.865112,836.367004 1669.585449,841.391846 1671.022705,848.966675 
	C1671.035278,915.931885 1670.962646,982.061340 1671.075562,1048.190430 
	C1671.088623,1055.862427 1668.641602,1061.946289 1663.207764,1067.338013 
	C1637.553711,1092.794312 1612.051392,1118.403809 1586.505493,1143.969238 
	C1585.274170,1145.201416 1584.142822,1146.533691 1582.810303,1147.988281 
	C1590.339233,1153.089966 1597.298218,1157.897339 1604.362549,1162.544434 
	C1606.949951,1164.246460 1609.787231,1165.568848 1612.510498,1167.064331 
	C1614.826172,1168.895874 1617.027588,1170.898193 1619.474731,1172.532959 
	C1650.048462,1192.955688 1680.641357,1213.349854 1711.273804,1233.684570 
	C1716.586304,1237.211182 1719.736328,1242.005127 1720.962891,1249.036865 
	C1721.012573,1316.371216 1721.089355,1382.865723 1720.825684,1449.358887 
	C1720.807007,1454.061523 1719.336304,1459.458740 1716.750366,1463.339844 
	C1695.995850,1494.490356 1674.541870,1525.176392 1653.909058,1556.405518 
	C1647.076050,1566.747681 1639.079468,1571.254395 1626.362549,1571.234985 
	C1416.881226,1570.914307 1207.399414,1571.006714 997.917603,1571.010498 
	C994.253235,1571.010620 990.588867,1571.061523 986.924500,1571.088867 
M1658.062866,1246.418457 
	C1621.369263,1222.007935 1584.695679,1197.567139 1547.928955,1173.267212 
	C1545.883423,1171.915283 1543.068481,1171.093994 1540.610474,1171.090942 
	C1451.445312,1170.980103 1362.279907,1170.996216 1273.114624,1170.994629 
	C1271.495850,1170.994629 1269.876953,1170.994629 1268.077637,1170.994629 
	C1247.390259,1291.192627 1226.802490,1410.812256 1206.116333,1531.003662 
	C1208.667480,1531.003662 1210.469727,1531.003662 1212.271973,1531.003662 
	C1271.271118,1531.003662 1330.270264,1531.003906 1389.269409,1531.003540 
	C1465.268311,1531.003052 1541.267090,1530.996582 1617.265991,1531.022705 
	C1620.136719,1531.023804 1622.568359,1530.989868 1624.520752,1528.090942 
	C1642.646606,1501.180298 1660.945435,1474.385864 1679.102173,1447.495728 
	C1680.142212,1445.955444 1680.912109,1443.874878 1680.915039,1442.044189 
	C1681.010620,1383.045288 1681.020264,1324.046143 1680.876221,1265.047363 
	C1680.872070,1263.340454 1679.471069,1261.076904 1678.027344,1260.030273 
	C1671.703979,1255.446167 1665.124878,1251.215088 1658.062866,1246.418457 
M1056.500000,1531.004272 
	C1091.162231,1531.004395 1125.824463,1530.966309 1160.486450,1531.063965 
	C1163.934570,1531.073608 1165.849121,1530.722900 1166.309937,1526.509521 
	C1167.193970,1518.428833 1168.873779,1510.434448 1170.250732,1502.408936 
	C1178.910889,1451.931763 1187.561401,1401.452881 1196.249634,1350.980469 
	C1202.130127,1316.819580 1208.084717,1282.671509 1213.973999,1248.512207 
	C1221.430664,1205.261597 1228.851318,1162.004883 1236.293213,1118.751709 
	C1245.257690,1066.649658 1254.217529,1014.546936 1263.198730,962.447815 
	C1272.716064,907.238586 1282.258667,852.033752 1291.784058,796.825928 
	C1293.241699,788.377502 1294.664917,779.923096 1296.108643,771.444641 
	C1295.089111,771.209351 1294.612061,771.002869 1294.135010,771.002747 
	C1242.808716,770.991516 1191.482300,771.019165 1140.156128,770.939819 
	C1137.116211,770.935120 1136.226196,772.102417 1135.770996,774.902710 
	C1133.103149,791.310669 1130.283081,807.694336 1127.449341,824.074951 
	C1121.015747,861.263794 1114.502075,898.438843 1108.098877,935.632874 
	C1100.511841,979.704041 1093.031128,1023.793396 1085.459473,1067.867188 
	C1076.987061,1117.184448 1068.454102,1166.491089 1059.967285,1215.805786 
	C1051.856689,1262.934082 1043.766968,1310.065918 1035.676758,1357.197754 
	C1032.044434,1378.359375 1028.458740,1399.529175 1024.807007,1420.687500 
	C1019.349060,1452.310913 1013.840210,1483.925537 1008.382507,1515.549072 
	C1007.520569,1520.543213 1006.813721,1525.564087 1005.968201,1531.004272 
	C1022.890015,1531.004272 1039.194946,1531.004272 1056.500000,1531.004272 
M1612.025635,1061.526245 
	C1617.568359,1056.000366 1623.219849,1050.576538 1628.575928,1044.875366 
	C1629.882080,1043.485107 1630.898193,1041.185547 1630.901978,1039.301514 
	C1631.021851,981.311707 1631.025635,923.321411 1630.879272,865.331665 
	C1630.874390,863.419373 1629.635132,860.770325 1628.107178,859.709656 
	C1586.420654,830.770752 1544.640259,801.966553 1502.783081,773.274841 
	C1500.759766,771.887817 1497.895996,771.096863 1495.421143,771.090942 
	C1444.263550,770.967529 1393.105469,770.998352 1341.947510,770.998657 
	C1340.341675,770.998718 1338.735840,770.998718 1336.876221,770.998718 
	C1316.201050,891.200928 1295.618652,1010.863831 1275.002686,1130.722412 
	C1276.276855,1130.862793 1276.923950,1130.996582 1277.571045,1130.996582 
	C1364.722656,1131.006470 1451.874268,1131.027710 1539.025635,1130.884644 
	C1541.164062,1130.881104 1543.792847,1129.548462 1545.362061,1127.995972 
	C1567.501221,1106.091797 1589.496216,1084.041870 1612.025635,1061.526245 
z"/>
<path fill="#333333" opacity="1.000000" stroke="none" 
	d="
M305.928833,571.083252 
	C302.939240,570.945862 299.874817,571.183594 296.973328,570.604614 
	C285.760193,568.367249 279.218445,558.330261 281.266541,546.623047 
	C284.348480,529.006104 287.638763,511.425323 290.680054,493.801483 
	C295.202515,467.594482 299.469818,441.343079 304.065460,415.149139 
	C307.411102,396.080200 311.115417,377.074249 314.650726,358.038544 
	C315.399292,354.008118 315.882446,349.913422 316.881378,345.947449 
	C319.121338,337.054169 326.626953,331.238739 335.781555,331.001678 
	C336.780853,330.975800 337.781433,330.998291 338.781403,330.998291 
	C740.275085,330.998383 1141.768799,330.998322 1543.262451,330.999176 
	C1559.009766,330.999207 1566.876831,339.397705 1565.739990,355.911285 
	C1562.440674,374.202271 1559.183594,391.682556 1556.104126,409.194092 
	C1547.642700,457.310760 1539.287842,505.446167 1530.816040,553.561035 
	C1528.809204,564.959045 1520.462524,571.375000 1508.815430,570.981323 
	C1504.659668,570.840820 1500.494263,570.999084 1496.333252,570.999084 
	C1103.695801,571.000793 711.058350,571.000061 318.420929,571.003479 
	C314.256897,571.003479 310.092865,571.055481 305.928833,571.083252 
M893.500000,371.005981 
	C713.398926,371.005981 533.297791,371.005981 352.939331,371.005981 
	C343.520081,424.414185 334.177246,477.389008 324.722748,530.996826 
	C328.236511,530.996826 331.030670,530.996826 333.824829,530.996826 
	C716.937927,530.996887 1100.051025,530.996887 1483.164062,530.996948 
	C1485.330444,530.996948 1487.524780,530.777466 1489.656982,531.047913 
	C1493.354492,531.516846 1494.378052,529.811218 1494.972534,526.390686 
	C1503.028442,480.032013 1511.246704,433.701599 1519.408936,387.361389 
	C1520.339966,382.075317 1521.174561,376.772217 1522.131958,371.006012 
	C1312.387817,371.006012 1103.443970,371.006012 893.500000,371.005981 
z"/>
<path fill="#333434" opacity="1.000000" stroke="none" 
	d="
M555.911377,1671.105225 
	C553.579956,1671.057983 551.237793,1671.137329 548.918823,1670.942383 
	C537.013062,1669.940674 528.951172,1658.953735 531.205139,1646.638062 
	C536.336304,1618.601807 541.581177,1590.586182 546.742798,1562.555420 
	C552.752930,1529.917114 558.723572,1497.271606 564.711304,1464.629150 
	C571.382996,1428.258423 578.059204,1391.888550 584.725342,1355.516724 
	C590.723572,1322.788940 596.704529,1290.057983 602.704346,1257.330566 
	C607.716736,1229.989136 612.759277,1202.653320 617.762329,1175.310181 
	C621.348999,1155.708130 624.861816,1136.092407 628.462646,1116.492920 
	C633.565369,1088.718872 638.743652,1060.958740 643.841858,1033.183838 
	C647.425293,1013.661316 650.990906,994.134949 654.448975,974.589905 
	C657.074585,959.749634 659.327087,944.841614 662.085266,930.026978 
	C666.820251,904.594543 671.972290,879.239563 676.667786,853.800171 
	C681.650391,826.804688 686.222778,799.733643 691.132874,772.724487 
	C694.275879,755.435852 697.783875,738.213867 700.988708,720.936157 
	C705.427673,697.004456 709.637756,673.029968 714.139587,649.110291 
	C716.482971,636.658875 723.698425,631.014099 736.519348,631.012512 
	C805.015320,631.004028 873.511353,630.988831 942.007324,631.004700 
	C956.196899,631.007935 965.423218,641.956238 962.326233,655.910461 
	C961.072449,663.787048 960.010620,670.854797 958.715454,677.879639 
	C949.557922,727.548279 940.296753,777.197815 931.178345,826.873657 
	C922.269836,875.405762 913.510315,923.965332 904.650696,972.506409 
	C895.402832,1023.175110 886.122253,1073.837769 876.840027,1124.500244 
	C865.821899,1184.637573 854.803467,1244.775024 843.753662,1304.906616 
	C834.204590,1356.871460 824.575256,1408.821533 815.046875,1460.790161 
	C803.271423,1525.014893 791.573059,1589.253906 779.817810,1653.482422 
	C777.759155,1664.730225 769.706421,1671.168579 758.353455,1671.010254 
	C750.025940,1670.894165 741.695312,1671.001221 733.366028,1671.005981 
	C674.214478,1671.039429 615.062927,1671.072144 555.911377,1671.105225 
M706.500000,1630.993164 
	C716.997620,1631.001221 727.497986,1630.876465 737.991455,1631.088623 
	C741.755188,1631.164795 743.410339,1630.290527 744.114319,1626.141968 
	C747.925293,1603.683960 752.102966,1581.287476 756.226868,1558.883179 
	C766.748596,1501.720825 777.327637,1444.568970 787.846558,1387.406128 
	C794.284058,1352.422607 800.667419,1317.429199 807.049255,1282.435425 
	C815.817139,1234.357544 824.522400,1186.268311 833.326843,1138.197021 
	C840.185120,1100.751221 847.246643,1063.342285 854.046082,1025.885742 
	C860.517151,990.238281 866.636230,954.526733 873.151733,918.887573 
	C878.613831,889.010132 884.504211,859.211243 890.061584,829.350891 
	C898.030334,786.533752 905.881287,743.694641 913.753052,700.859497 
	C915.547058,691.097107 917.221252,681.312683 918.978516,671.380493 
	C917.911804,671.206787 917.271912,671.011414 916.631958,671.011292 
	C862.640686,670.999695 808.649414,671.030212 754.658325,670.939880 
	C751.325256,670.934265 750.501465,672.356567 750.014771,675.268921 
	C747.987671,687.400208 745.774475,699.501160 743.551514,711.598938 
	C735.680481,754.435181 727.753174,797.261108 719.892761,840.099304 
	C710.830750,889.486084 701.842590,938.886414 692.775024,988.272156 
	C683.571106,1038.400757 674.270813,1088.511719 665.083008,1138.643311 
	C653.545044,1201.597656 642.106934,1264.570312 630.572388,1327.525269 
	C620.774048,1381.004150 610.897400,1434.468628 601.060425,1487.940430 
	C593.751099,1527.672607 586.440918,1567.404541 579.152161,1607.140381 
	C577.728516,1614.901855 576.401855,1622.681152 574.934875,1630.993164 
	C618.916077,1630.993164 662.208008,1630.993164 706.500000,1630.993164 
z"/>
<path fill="#999999" opacity="1.000000" stroke="none" 
	d="
M305.996918,571.527100 
	C310.092865,571.055481 314.256897,571.003479 318.420929,571.003479 
	C711.058350,571.000061 1103.695801,571.000793 1496.333252,570.999084 
	C1500.494263,570.999084 1504.659668,570.840820 1508.815430,570.981323 
	C1520.462524,571.375000 1528.809204,564.959045 1530.816040,553.561035 
	C1539.287842,505.446167 1547.642700,457.310760 1556.104126,409.194092 
	C1559.183594,391.682556 1562.440674,374.202271 1565.797852,356.362427 
	C1570.853394,356.773224 1576.157349,356.561188 1580.509399,358.493500 
	C1588.734985,362.145630 1592.376343,371.137329 1590.757935,380.321503 
	C1581.128418,434.968781 1571.519897,489.619751 1561.901978,544.269043 
	C1559.885742,555.725342 1557.911743,567.189453 1555.824585,578.632812 
	C1553.799683,589.734863 1545.505859,596.309387 1534.230591,595.999268 
	C1530.405273,595.894104 1526.574341,596.000549 1522.745972,596.000549 
	C1124.606689,596.000854 726.467407,595.994324 328.328125,596.052612 
	C322.040131,596.053528 316.515564,594.744629 311.882202,590.297729 
	C306.590210,585.218689 305.395264,578.907227 305.996918,571.527100 
z"/>
<path fill="#999999" opacity="1.000000" stroke="none" 
	d="
M555.970459,1671.548584 
	C615.062927,1671.072144 674.214478,1671.039429 733.366028,1671.005981 
	C741.695312,1671.001221 750.025940,1670.894165 758.353455,1671.010254 
	C769.706421,1671.168579 777.759155,1664.730225 779.817810,1653.482422 
	C791.573059,1589.253906 803.271423,1525.014893 815.046875,1460.790161 
	C824.575256,1408.821533 834.204590,1356.871460 843.753662,1304.906616 
	C854.803467,1244.775024 865.821899,1184.637573 876.840027,1124.500244 
	C886.122253,1073.837769 895.402832,1023.175110 904.650696,972.506409 
	C913.510315,923.965332 922.269836,875.405762 931.178345,826.873657 
	C940.296753,777.197815 949.557922,727.548279 958.715454,677.879639 
	C960.010620,670.854797 961.072449,663.787048 962.213379,656.294556 
	C965.507385,656.002441 968.914062,655.736450 972.137939,656.382812 
	C983.434448,658.647583 989.955566,669.079224 987.760071,680.979187 
	C977.240540,737.996521 966.649292,795.000671 956.194153,852.029785 
	C943.700684,920.177002 931.374512,988.354858 918.873840,1056.500732 
	C907.393127,1119.086426 895.745605,1181.641357 884.229492,1244.220581 
	C873.195068,1304.181885 862.233215,1364.156372 851.243042,1424.125854 
	C838.904480,1491.453125 826.560730,1558.779541 814.240356,1626.110229 
	C811.100159,1643.271362 808.028137,1660.444946 804.946838,1677.616821 
	C802.705872,1690.105591 795.099670,1695.990845 782.281799,1695.976807 
	C713.791687,1695.901611 645.301331,1695.984741 576.811096,1695.992188 
	C566.574890,1695.993286 558.704407,1690.274170 556.485107,1680.919800 
	C555.808533,1678.068359 556.152832,1674.974731 555.970459,1671.548584 
z"/>
<path fill="#85C3FE" opacity="1.000000" stroke="none" 
	d="
M986.982544,1571.529663 
	C990.588867,1571.061523 994.253235,1571.010620 997.917603,1571.010498 
	C1207.399414,1571.006714 1416.881226,1570.914307 1626.362549,1571.234985 
	C1639.079468,1571.254395 1647.076050,1566.747681 1653.909058,1556.405518 
	C1674.541870,1525.176392 1695.995850,1494.490356 1716.750366,1463.339844 
	C1719.336304,1459.458740 1720.807007,1454.061523 1720.825684,1449.358887 
	C1721.089355,1382.865723 1721.012573,1316.371216 1721.048706,1249.404541 
	C1727.169556,1252.950928 1733.520386,1256.633423 1739.273071,1261.088501 
	C1744.449951,1265.097778 1746.049072,1271.056274 1746.041382,1277.560181 
	C1745.987793,1322.716675 1746.015137,1367.873291 1746.015991,1413.029785 
	C1746.016357,1430.859131 1745.324219,1448.724609 1746.257324,1466.505005 
	C1746.888184,1478.527466 1742.664673,1487.918701 1736.086304,1497.329224 
	C1719.795654,1520.633423 1704.008667,1544.289429 1687.989868,1567.783936 
	C1683.492676,1574.379761 1678.794556,1580.840088 1674.369873,1587.483154 
	C1670.376099,1593.479370 1664.541992,1595.627197 1657.763184,1595.987549 
	C1655.270874,1596.120117 1652.765381,1596.003296 1650.265991,1596.003296 
	C1436.980713,1596.003174 1223.695312,1595.988647 1010.410034,1596.055176 
	C1001.672607,1596.057983 993.805298,1594.293457 989.811890,1585.891235 
	C987.842651,1581.747925 987.900146,1576.641357 986.982544,1571.529663 
z"/>
<path fill="#85C3FE" opacity="1.000000" stroke="none" 
	d="
M1612.867676,1166.972412 
	C1609.787231,1165.568848 1606.949951,1164.246460 1604.362549,1162.544434 
	C1597.298218,1157.897339 1590.339233,1153.089966 1582.810303,1147.988281 
	C1584.142822,1146.533691 1585.274170,1145.201416 1586.505493,1143.969238 
	C1612.051392,1118.403809 1637.553711,1092.794312 1663.207764,1067.338013 
	C1668.641602,1061.946289 1671.088623,1055.862427 1671.075562,1048.190430 
	C1670.962646,982.061340 1671.035278,915.931885 1671.120117,849.327576 
	C1677.368896,853.013733 1684.267822,856.448181 1689.477173,861.593262 
	C1692.905273,864.979248 1695.685303,870.820068 1695.713379,875.579529 
	C1696.108154,942.557007 1696.087036,1009.538086 1695.740356,1076.516113 
	C1695.717041,1081.029175 1693.403320,1086.624023 1690.248657,1089.854126 
	C1665.108887,1115.595703 1639.508667,1140.887695 1614.043701,1166.311646 
	C1613.812134,1166.542847 1613.499512,1166.692627 1612.867676,1166.972412 
z"/>
<path fill="#333333" opacity="1.000000" stroke="none" 
	d="
M1658.350708,1246.637207 
	C1665.124878,1251.215088 1671.703979,1255.446167 1678.027344,1260.030273 
	C1679.471069,1261.076904 1680.872070,1263.340454 1680.876221,1265.047363 
	C1681.020264,1324.046143 1681.010620,1383.045288 1680.915039,1442.044189 
	C1680.912109,1443.874878 1680.142212,1445.955444 1679.102173,1447.495728 
	C1660.945435,1474.385864 1642.646606,1501.180298 1624.520752,1528.090942 
	C1622.568359,1530.989868 1620.136719,1531.023804 1617.265991,1531.022705 
	C1541.267090,1530.996582 1465.268311,1531.003052 1389.269409,1531.003540 
	C1330.270264,1531.003906 1271.271118,1531.003662 1212.271973,1531.003662 
	C1210.469727,1531.003662 1208.667480,1531.003662 1206.116333,1531.003662 
	C1226.802490,1410.812256 1247.390259,1291.192627 1268.077637,1170.994629 
	C1269.876953,1170.994629 1271.495850,1170.994629 1273.114624,1170.994629 
	C1362.279907,1170.996216 1451.445312,1170.980103 1540.610474,1171.090942 
	C1543.068481,1171.093994 1545.883423,1171.915283 1547.928955,1173.267212 
	C1584.695679,1197.567139 1621.369263,1222.007935 1658.350708,1246.637207 
z"/>
<path fill="#333333" opacity="1.000000" stroke="none" 
	d="
M1056.000000,1531.004272 
	C1039.194946,1531.004272 1022.890015,1531.004272 1005.968201,1531.004272 
	C1006.813721,1525.564087 1007.520569,1520.543213 1008.382507,1515.549072 
	C1013.840210,1483.925537 1019.349060,1452.310913 1024.807007,1420.687500 
	C1028.458740,1399.529175 1032.044434,1378.359375 1035.676758,1357.197754 
	C1043.766968,1310.065918 1051.856689,1262.934082 1059.967285,1215.805786 
	C1068.454102,1166.491089 1076.987061,1117.184448 1085.459473,1067.867188 
	C1093.031128,1023.793396 1100.511841,979.704041 1108.098877,935.632874 
	C1114.502075,898.438843 1121.015747,861.263794 1127.449341,824.074951 
	C1130.283081,807.694336 1133.103149,791.310669 1135.770996,774.902710 
	C1136.226196,772.102417 1137.116211,770.935120 1140.156128,770.939819 
	C1191.482300,771.019165 1242.808716,770.991516 1294.135010,771.002747 
	C1294.612061,771.002869 1295.089111,771.209351 1296.108643,771.444641 
	C1294.664917,779.923096 1293.241699,788.377502 1291.784058,796.825928 
	C1282.258667,852.033752 1272.716064,907.238586 1263.198730,962.447815 
	C1254.217529,1014.546936 1245.257690,1066.649658 1236.293213,1118.751709 
	C1228.851318,1162.004883 1221.430664,1205.261597 1213.973999,1248.512207 
	C1208.084717,1282.671509 1202.130127,1316.819580 1196.249634,1350.980469 
	C1187.561401,1401.452881 1178.910889,1451.931763 1170.250732,1502.408936 
	C1168.873779,1510.434448 1167.193970,1518.428833 1166.309937,1526.509521 
	C1165.849121,1530.722900 1163.934570,1531.073608 1160.486450,1531.063965 
	C1125.824463,1530.966309 1091.162231,1531.004395 1056.000000,1531.004272 
z"/>
<path fill="#333333" opacity="1.000000" stroke="none" 
	d="
M1611.775879,1061.776733 
	C1589.496216,1084.041870 1567.501221,1106.091797 1545.362061,1127.995972 
	C1543.792847,1129.548462 1541.164062,1130.881104 1539.025635,1130.884644 
	C1451.874268,1131.027710 1364.722656,1131.006470 1277.571045,1130.996582 
	C1276.923950,1130.996582 1276.276855,1130.862793 1275.002686,1130.722412 
	C1295.618652,1010.863831 1316.201050,891.200928 1336.876221,770.998718 
	C1338.735840,770.998718 1340.341675,770.998718 1341.947510,770.998657 
	C1393.105469,770.998352 1444.263550,770.967529 1495.421143,771.090942 
	C1497.895996,771.096863 1500.759766,771.887817 1502.783081,773.274841 
	C1544.640259,801.966553 1586.420654,830.770752 1628.107178,859.709656 
	C1629.635132,860.770325 1630.874390,863.419373 1630.879272,865.331665 
	C1631.025635,923.321411 1631.021851,981.311707 1630.901978,1039.301514 
	C1630.898193,1041.185547 1629.882080,1043.485107 1628.575928,1044.875366 
	C1623.219849,1050.576538 1617.568359,1056.000366 1611.775879,1061.776733 
z"/>
<path fill="#0B86FF" opacity="1.000000" stroke="none" 
	d="
M894.000000,371.005981 
	C1103.443970,371.006012 1312.387817,371.006012 1522.131958,371.006012 
	C1521.174561,376.772217 1520.339966,382.075317 1519.408936,387.361389 
	C1511.246704,433.701599 1503.028442,480.032013 1494.972534,526.390686 
	C1494.378052,529.811218 1493.354492,531.516846 1489.656982,531.047913 
	C1487.524780,530.777466 1485.330444,530.996948 1483.164062,530.996948 
	C1100.051025,530.996887 716.937927,530.996887 333.824829,530.996826 
	C331.030670,530.996826 328.236511,530.996826 324.722748,530.996826 
	C334.177246,477.389008 343.520081,424.414185 352.939331,371.005981 
	C533.297791,371.005981 713.398926,371.005981 894.000000,371.005981 
z"/>
<path fill="#0B86FF" opacity="1.000000" stroke="none" 
	d="
M706.000000,1630.993164 
	C662.208008,1630.993164 618.916077,1630.993164 574.934875,1630.993164 
	C576.401855,1622.681152 577.728516,1614.901855 579.152161,1607.140381 
	C586.440918,1567.404541 593.751099,1527.672607 601.060425,1487.940430 
	C610.897400,1434.468628 620.774048,1381.004150 630.572388,1327.525269 
	C642.106934,1264.570312 653.545044,1201.597656 665.083008,1138.643311 
	C674.270813,1088.511719 683.571106,1038.400757 692.775024,988.272156 
	C701.842590,938.886414 710.830750,889.486084 719.892761,840.099304 
	C727.753174,797.261108 735.680481,754.435181 743.551514,711.598938 
	C745.774475,699.501160 747.987671,687.400208 750.014771,675.268921 
	C750.501465,672.356567 751.325256,670.934265 754.658325,670.939880 
	C808.649414,671.030212 862.640686,670.999695 916.631958,671.011292 
	C917.271912,671.011414 917.911804,671.206787 918.978516,671.380493 
	C917.221252,681.312683 915.547058,691.097107 913.753052,700.859497 
	C905.881287,743.694641 898.030334,786.533752 890.061584,829.350891 
	C884.504211,859.211243 878.613831,889.010132 873.151733,918.887573 
	C866.636230,954.526733 860.517151,990.238281 854.046082,1025.885742 
	C847.246643,1063.342285 840.185120,1100.751221 833.326843,1138.197021 
	C824.522400,1186.268311 815.817139,1234.357544 807.049255,1282.435425 
	C800.667419,1317.429199 794.284058,1352.422607 787.846558,1387.406128 
	C777.327637,1444.568970 766.748596,1501.720825 756.226868,1558.883179 
	C752.102966,1581.287476 747.925293,1603.683960 744.114319,1626.141968 
	C743.410339,1630.290527 741.755188,1631.164795 737.991455,1631.088623 
	C727.497986,1630.876465 716.997620,1631.001221 706.000000,1630.993164 
z"/>
</svg>