<?xml version="1.0" encoding="UTF-8" standalone="no"?>
<svg
   version="1.1"
   id="Layer_1"
   x="0px"
   y="0px"
   width="538"
   viewBox="0 0 538 537"
   enable-background="new 0 0 635 540"
   xml:space="preserve"
   sodipodi:docname="linkedin_logo.svg"
   inkscape:version="1.3.2 (091e20ef0f, 2023-11-25, custom)"
   height="537"
   xmlns:inkscape="http://www.inkscape.org/namespaces/inkscape"
   xmlns:sodipodi="http://sodipodi.sourceforge.net/DTD/sodipodi-0.dtd"
   xmlns="http://www.w3.org/2000/svg"
   xmlns:svg="http://www.w3.org/2000/svg"><defs
   id="defs3" /><sodipodi:namedview
   id="namedview3"
   pagecolor="#ffffff"
   bordercolor="#000000"
   borderopacity="0.25"
   inkscape:showpageshadow="2"
   inkscape:pageopacity="0.0"
   inkscape:pagecheckerboard="0"
   inkscape:deskcolor="#d1d1d1"
   inkscape:zoom="1.4888889"
   inkscape:cx="317.68656"
   inkscape:cy="263.95522"
   inkscape:window-width="1920"
   inkscape:window-height="1008"
   inkscape:window-x="0"
   inkscape:window-y="0"
   inkscape:window-maximized="1"
   inkscape:current-layer="Layer_1" />
<path
   fill="#2867b2"
   opacity="1"
   stroke="none"
   d="M 1.000001,507 C 1,348.64258 1,190.28519 1.348588,31.35269 4.564389,25.58452 6.927793,20.020687 10.414048,15.283136 15.978903,7.720929 24.168917,3.711784 33,1 c 157.35741,0 314.71481,0 472.68881,0.355003 17.51633,3.4129 32.31339,19.378508 32.31296,39.856575 -0.003,147.983272 0.0107,295.966552 -0.044,443.949802 -0.002,6.42569 -0.41369,12.87024 -0.99627,19.27304 -1.50318,16.51864 -19.21704,32.55838 -35.82599,32.55948 -154.31589,0.0103 -308.63182,0.0526 -462.947607,-0.0752 C 24.657312,536.90753 14.719544,529.57941 7.367126,518.68323 4.897429,515.02313 3.103041,510.90744 1.000001,507 M 211,298.5 c 0,52.74387 0,105.48776 0,158.11871 26.38994,0 52.10797,0 78,0 0,-2.20489 0,-4.03033 0,-5.85577 0,-40.98889 -0.17798,-81.97913 0.13754,-122.96558 0.0702,-9.12076 1.2305,-18.35852 3.03452,-27.31155 2.81424,-13.96652 9.30243,-25.66589 23.36578,-31.64163 9.03928,-3.84098 18.53641,-4.63623 28.02655,-3.70688 12.5831,1.23218 22.61728,7.04053 28.45023,18.87655 4.86682,9.87565 6.79168,20.53476 6.86126,31.28522 0.29331,45.31915 0.12412,90.6413 0.12412,135.96234 0,1.77909 0,3.55817 0,5.42676 26.24963,0 51.9668,0 77.85275,0 0.059,-1.11084 0.13175,-1.91992 0.14063,-2.7297 0.33914,-30.9242 1.02853,-61.85001 0.89383,-92.77222 -0.10755,-24.69342 -1.21225,-49.3826 -1.88852,-74.0733 -0.35163,-12.83811 -3.15726,-25.27073 -7.15442,-37.35599 -7.62592,-23.05673 -22.48813,-39.76331 -45.79672,-47.4805 -9.16916,-3.03578 -19.13028,-3.74039 -28.76456,-5.29729 -17.13477,-2.769 -33.58429,-0.28584 -49.28171,7.03836 -14.41962,6.72801 -26.2944,16.42925 -34.72629,30.11374 -0.78018,1.26619 -2.17196,2.15552 -4.36526,4.26279 0,-12.79186 0,-23.8873 0,-35.08811 -25.1471,0 -49.86441,0 -74.90973,0 0,31.60122 0,62.89763 0,95.19405 m -51,60 c 0,-51.74829 0,-103.49661 0,-155.10913 -26.40527,0 -52.12544,0 -77.746719,0 0,84.6524 0,168.9137 0,253.30664 25.973349,0 51.692459,0 77.746719,0 0,-32.60004 0,-64.89877 0,-98.19751 M 158.53323,96.005035 c -0.28688,-0.583953 -0.4646,-1.262466 -0.8766,-1.738029 -10.00181,-11.545189 -21.76317,-18.883759 -37.91471,-18.443169 -12.63264,0.34459 -23.253532,5.070954 -31.412651,13.757256 -9.202301,9.796905 -14.030334,21.817957 -12.480949,36.026157 1.153015,10.57341 5.188438,19.66207 12.414726,26.90918 10.03344,10.06235 22.217584,15.17147 36.981014,13.61119 11.26062,-1.19007 21.0264,-5.5047 28.42711,-13.56379 14.28768,-15.55881 17.25547,-37.40907 4.86206,-56.558795 z"
   id="path1" />


<path
   style="fill:#ffffff;stroke-width:0.671642"
   d="M 113.33775,165.52838 C 104.59423,163.96752 97.344518,160.21696 90.236754,153.5773 82.200912,146.0707 77.351666,136.2151 76.356824,125.36778 75.059987,111.22763 79.280022,99.536271 89.344839,89.385249 97.666971,80.991838 106.57251,76.99225 118.26838,76.395324 c 13.17094,-0.672209 23.54405,3.266982 33.55384,12.742086 4.8925,4.631161 6.18442,6.340151 8.72725,11.54474 3.87393,7.92906 5.22027,13.34681 5.19,20.88501 -0.0297,7.40214 -1.45608,13.1333 -4.93115,19.81344 -4.72465,9.0822 -11.27928,15.69522 -19.86277,20.03973 -6.96495,3.52529 -20.00383,5.46548 -27.6078,4.10805 z"
   id="path4" /><path
   style="fill:#ffffff;stroke-width:0.671642"
   d="M 82.276119,330.11194 V 203.84328 h 38.619401 38.61941 V 330.11194 456.3806 H 120.89552 82.276119 Z"
   id="path5" /><path
   style="fill:#ffffff;stroke-width:0.671642"
   d="M 211.23134,330.11194 V 203.84328 h 37.27612 37.27612 v 17.57977 17.57976 l 1.74761,-1.62827 c 0.96119,-0.89555 3.81617,-4.37409 6.34441,-7.7301 15.57973,-20.68066 40.63563,-33.18922 66.48135,-33.18922 9.8402,0 33.07834,3.27144 41.14487,5.79232 14.91728,4.66182 27.43829,13.64574 36.07492,25.884 6.03813,8.55614 10.01423,17.54234 13.43735,30.36908 4.22153,15.81852 4.62227,20.81934 6.06154,75.64117 0.69507,26.4758 0.40835,102.20851 -0.43928,116.02612 l -0.38111,6.21269 h -38.55672 -38.55673 l -0.003,-73.71269 c -0.002,-61.50159 -0.16557,-74.71405 -0.98584,-79.75746 -1.94418,-11.95366 -5.89395,-21.14607 -11.79776,-27.45726 -7.36248,-7.87052 -15.31393,-10.71565 -29.86295,-10.68535 -14.48753,0.0302 -24.56044,3.6185 -32.59861,11.61276 -6.92184,6.88403 -10.38761,14.53226 -12.76819,28.17677 -2.27752,13.05389 -2.62741,24.91127 -2.64175,89.52845 l -0.0138,62.29478 h -38.6194 -38.61941 z"
   id="path6" /></svg>
